<svg width="87" height="88" viewBox="0 0 87 88" fill="none" xmlns="http://www.w3.org/2000/svg">
<path d="M39.7497 24.6227C41.1073 21.242 45.8932 21.242 47.2508 24.6227L49.9994 31.4672C50.5775 32.9069 51.9287 33.8886 53.4765 33.9935L60.8354 34.4925C64.4702 34.739 65.9491 39.2906 63.1533 41.6265L57.4932 46.3556C56.3026 47.3503 55.7865 48.9387 56.165 50.4432L57.9645 57.5961C58.8533 61.1291 54.9814 63.9422 51.896 62.0051L45.6492 58.0834C44.3353 57.2585 42.6652 57.2585 41.3513 58.0834L35.1045 62.0051C32.0191 63.9422 28.1472 61.1291 29.036 57.5961L30.8355 50.4432C31.214 48.9387 30.6979 47.3503 29.5073 46.3556L23.8472 41.6265C21.0514 39.2906 22.5304 34.739 26.1651 34.4925L33.524 33.9935C35.0718 33.8886 36.423 32.9069 37.0011 31.4672L39.7497 24.6227Z" fill="#FCF7F8"/>
</svg>
