<svg width="88" height="88" viewBox="0 0 88 88" fill="none" xmlns="http://www.w3.org/2000/svg">
<mask id="mask0_45_1403" style="mask-type:alpha" maskUnits="userSpaceOnUse" x="15" y="11" width="30" height="59">
<rect x="15.3756" y="11.5752" width="28.7855" height="57.5711" rx="4.04167" fill="white"/>
</mask>
<g mask="url(#mask0_45_1403)">
<path d="M40.4106 24.513C41.7682 21.1323 46.5541 21.1323 47.9117 24.513L50.6603 31.3575C51.2384 32.7972 52.5896 33.7788 54.1374 33.8838L61.4963 34.3828C65.131 34.6292 66.61 39.1809 63.8142 41.5167L58.1541 46.2458C56.9635 47.2405 56.4474 48.8289 56.8259 50.3335L58.6254 57.4863C59.5142 61.0194 55.6423 63.8325 52.5569 61.8954L46.3101 57.9736C44.9962 57.1487 43.3261 57.1487 42.0122 57.9736L35.7654 61.8954C32.68 63.8325 28.8081 61.0194 29.6969 57.4863L31.4964 50.3335C31.8749 48.8289 31.3588 47.2405 30.1682 46.2458L24.5081 41.5167C21.7123 39.1809 23.1912 34.6292 26.826 34.3828L34.1849 33.8838C35.7327 33.7788 37.0839 32.7971 37.662 31.3575L40.4106 24.513Z" fill="#FCF7F8"/>
</g>
<path d="M40.4106 24.513C41.7682 21.1323 46.5541 21.1323 47.9117 24.513L50.6603 31.3575C51.2384 32.7972 52.5896 33.7788 54.1374 33.8838L61.4963 34.3828C65.131 34.6292 66.61 39.1809 63.8142 41.5167L58.1541 46.2458C56.9635 47.2405 56.4474 48.8289 56.8259 50.3335L58.6254 57.4863C59.5142 61.0194 55.6423 63.8325 52.5569 61.8954L46.3101 57.9736C44.9962 57.1487 43.3261 57.1487 42.0122 57.9736L35.7654 61.8954C32.68 63.8325 28.8081 61.0194 29.6969 57.4863L31.4964 50.3335C31.8749 48.8289 31.3588 47.2405 30.1682 46.2458L24.5081 41.5167C21.7123 39.1809 23.1912 34.6292 26.826 34.3828L34.1849 33.8838C35.7327 33.7788 37.0839 32.7971 37.662 31.3575L40.4106 24.513Z" stroke="#FCF7F8" stroke-width="4.04167"/>
</svg>
