<svg width="87" height="88" viewBox="0 0 87 88" fill="none" xmlns="http://www.w3.org/2000/svg">
<path d="M40.071 24.513C41.4287 21.1323 46.2146 21.1323 47.5722 24.513L50.3207 31.3575C50.8988 32.7972 52.25 33.7788 53.7979 33.8838L61.1567 34.3828C64.7915 34.6292 66.2704 39.1809 63.4747 41.5167L57.8145 46.2458C56.624 47.2405 56.1079 48.8289 56.4864 50.3335L58.2859 57.4863C59.1747 61.0194 55.3028 63.8325 52.2173 61.8954L45.9706 57.9736C44.6567 57.1487 42.9865 57.1487 41.6726 57.9736L35.4259 61.8954C32.3404 63.8325 28.4685 61.0194 29.3574 57.4863L31.1568 50.3335C31.5353 48.8289 31.0192 47.2405 29.8287 46.2458L24.1685 41.5167C21.3728 39.1809 22.8517 34.6292 26.4865 34.3828L33.8454 33.8838C35.3932 33.7788 36.7444 32.7971 37.3225 31.3575L40.071 24.513Z" stroke="#FCF7F8" stroke-width="4.04167"/>
</svg>
