<svg width="107" height="115" viewBox="0 0 107 115" fill="none" xmlns="http://www.w3.org/2000/svg">
<path d="M29.2798 67.2559C29.2798 67.2559 31.3345 72.8823 36.5137 72.8823C41.693 72.8823 44.1496 67.2559 44.1496 67.2559" stroke="#FCF7F8" stroke-width="1.65517" stroke-linecap="round"/>
<path d="M29.521 68.4616L28.0742 69.2654" stroke="#FCF7F8" stroke-width="1.65517" stroke-linecap="round"/>
<path d="M36.5137 74.8916V72.8822" stroke="#FCF7F8" stroke-width="1.65517" stroke-linecap="round"/>
<path d="M43.7475 68.4615L45.3551 69.2653" stroke="#FCF7F8" stroke-width="1.65517" stroke-linecap="round"/>
<path d="M32.2085 71.6239L30.8872 73.2842" stroke="#FCF7F8" stroke-width="1.65517" stroke-linecap="round"/>
<path d="M41.3364 71.6767L42.542 72.8823" stroke="#FCF7F8" stroke-width="1.65517" stroke-linecap="round"/>
<path d="M62.7617 67.2559C62.7617 67.2559 64.8164 72.8823 69.9957 72.8823C75.1749 72.8823 77.6315 67.2559 77.6315 67.2559" stroke="#FCF7F8" stroke-width="1.65517" stroke-linecap="round"/>
<path d="M63.0029 68.4616L61.5561 69.2654" stroke="#FCF7F8" stroke-width="1.65517" stroke-linecap="round"/>
<path d="M69.9956 74.8916V72.8822" stroke="#FCF7F8" stroke-width="1.65517" stroke-linecap="round"/>
<path d="M77.2299 68.4615L78.8375 69.2653" stroke="#FCF7F8" stroke-width="1.65517" stroke-linecap="round"/>
<path d="M65.6904 71.6239L64.3692 73.2842" stroke="#FCF7F8" stroke-width="1.65517" stroke-linecap="round"/>
<path d="M74.8183 71.6767L76.0239 72.8823" stroke="#FCF7F8" stroke-width="1.65517" stroke-linecap="round"/>
<path d="M71.1996 54.295H35.8929C31.4968 54.295 21.5938 57.9952 21.5938 67.5504C21.5937 77.4626 25.5593 83.4569 35.8929 83.4569C46.2266 83.4569 50.0113 76.3537 51.824 74.3675C52.5947 73.5229 53.0252 73.1442 53.8864 73.1442C54.7475 73.1442 54.9803 73.6439 55.6991 74.3675C58.6226 77.3102 60.7755 83.4569 71.1996 83.4569C79.7205 83.4569 85.3179 79.5826 85.3179 67.5504C85.3179 57.8503 75.7923 54.6737 71.1996 54.295Z" stroke="#FCF7F8" stroke-width="1.65517"/>
<path d="M94.6669 27.3555L93.8548 27.1964V27.1964L94.6669 27.3555ZM90.7542 23.9476L90.3889 23.205V23.205L90.7542 23.9476ZM89.5565 53.45L88.7443 53.2909L88.579 54.1354L89.4293 54.2677L89.5565 53.45ZM89.7229 53.4759L89.5957 54.2936V54.2936L89.7229 53.4759ZM101.416 65.2141L102.201 64.9506V64.9506L101.416 65.2141ZM100.904 66.2174L101.161 67.004L100.904 66.2174ZM96.7042 71.7789L96.5769 72.5967L96.7042 71.7789ZM105.26 86.7116L104.432 86.7155L105.26 86.7116ZM104.182 87.4418L103.911 88.2238L104.182 87.4418ZM89.4672 86.9634L89.5295 87.7887L89.4672 86.9634ZM73.1929 96.211L73.762 96.8119L73.8066 96.7696L73.8445 96.7212L73.1929 96.211ZM71.1201 98.1739L70.5511 97.573L70.3919 97.7237L70.3282 97.9335L71.1201 98.1739ZM38.2627 100.439L39.0325 100.135L38.9651 99.9643L38.8317 99.8381L38.2627 100.439ZM33.798 96.211L33.1465 96.7212L33.1844 96.7696L33.229 96.8119L33.798 96.211ZM17.5237 86.9634L17.4614 87.7887L17.5237 86.9634ZM2.80861 87.4418L3.07973 88.2238H3.07973L2.80861 87.4418ZM1.73097 86.7116L2.55854 86.7155V86.7155L1.73097 86.7116ZM10.2868 71.7789L10.4141 72.5967L10.2868 71.7789ZM6.08747 66.2174L5.83039 67.004H5.83039L6.08747 66.2174ZM5.57485 65.2141L4.79034 64.9506L4.79034 64.9506L5.57485 65.2141ZM17.2681 53.4759L17.1408 52.6581H17.1408L17.2681 53.4759ZM19.0448 53.1994L19.1721 54.0171L20.0224 53.8848L19.857 53.0403L19.0448 53.1994ZM14.0409 27.6487L13.2288 27.8078L14.0409 27.6487ZM17.9536 24.2409L17.5883 24.9835V24.9835L17.9536 24.2409ZM40.4181 35.2916L40.0528 36.0342L40.3988 36.2044L40.7516 36.049L40.4181 35.2916ZM68.1125 35.0855L67.7905 35.8479L68.1386 35.995L68.4778 35.8281L68.1125 35.0855ZM95.4791 27.5145C95.7757 26.0001 95.2023 24.5979 94.2121 23.7355C93.217 22.8688 91.7665 22.5274 90.3889 23.205L91.1195 24.6902C91.8222 24.3446 92.5652 24.496 93.125 24.9836C93.6897 25.4754 94.0325 26.2889 93.8548 27.1964L95.4791 27.5145ZM90.3687 53.609L95.4791 27.5145L93.8548 27.1964L88.7443 53.2909L90.3687 53.609ZM89.8502 52.6581L89.6838 52.6322L89.4293 54.2677L89.5957 54.2936L89.8502 52.6581ZM102.201 64.9506C101.518 62.919 100.198 60.1445 98.1835 57.7323C96.168 55.3189 93.408 53.2117 89.8502 52.6581L89.5957 54.2936C92.6283 54.7655 95.0579 56.5718 96.913 58.7932C98.7692 61.0159 100 63.5978 100.632 65.4776L102.201 64.9506ZM101.161 67.004C101.996 66.7309 102.496 65.8305 102.201 64.9506L100.632 65.4776C100.631 65.476 100.63 65.47 100.63 65.4615C100.631 65.4536 100.633 65.4472 100.636 65.4427C100.64 65.4334 100.647 65.4307 100.646 65.4307L101.161 67.004ZM96.8314 70.9612C95.9874 70.8299 95.3884 70.6765 94.9827 70.5192C94.7813 70.441 94.6434 70.3679 94.5527 70.3069C94.5081 70.277 94.4785 70.2523 94.4597 70.2344C94.4411 70.2167 94.4347 70.2071 94.4348 70.2073C94.4731 70.2645 94.446 70.3399 94.4626 70.3054C94.5037 70.2197 94.6319 70.0515 94.9286 69.8155C95.5091 69.3536 96.4617 68.8431 97.607 68.3414C98.7372 67.8463 99.9999 67.3833 101.161 67.004L100.646 65.4307C99.4498 65.8218 98.1347 66.3032 96.9428 66.8253C95.7661 67.3408 94.6522 67.9203 93.8981 68.5202C93.5274 68.8151 93.1712 69.1707 92.9704 69.5892C92.745 70.0587 92.7185 70.6185 93.0592 71.1278C93.3514 71.5646 93.8446 71.853 94.3841 72.0623C94.9443 72.2796 95.6726 72.456 96.5769 72.5967L96.8314 70.9612ZM106.088 86.7077C106.075 84.0685 105.639 80.4809 104.299 77.3873C102.957 74.2865 100.641 71.554 96.8314 70.9612L96.5769 72.5967C99.6125 73.069 101.562 75.2313 102.78 78.0449C104.002 80.8655 104.421 84.2117 104.432 86.7155L106.088 86.7077ZM103.911 88.2238C104.917 88.5726 106.093 87.8999 106.088 86.7077L104.432 86.7155C104.432 86.7165 104.432 86.7136 104.434 86.7079C104.435 86.7022 104.438 86.6959 104.441 86.6895C104.448 86.6766 104.457 86.6692 104.462 86.6659C104.466 86.6627 104.469 86.6626 104.468 86.6627C104.468 86.6627 104.467 86.6629 104.465 86.6627C104.463 86.6625 104.459 86.6619 104.453 86.6599L103.911 88.2238ZM89.5295 87.7887C99.1701 87.0608 101.584 87.4169 103.911 88.2238L104.453 86.6599C101.773 85.7303 99.0509 85.41 89.4049 86.1382L89.5295 87.7887ZM73.8445 96.7212C79.2179 89.8596 84.6639 88.156 89.5295 87.7887L89.4049 86.1382C84.1363 86.536 78.2372 88.4273 72.5414 95.7007L73.8445 96.7212ZM71.6892 98.7748L73.762 96.8119L72.6239 95.6101L70.5511 97.573L71.6892 98.7748ZM54.2972 114.356C62.3871 114.356 69.1166 107.621 71.912 98.4144L70.3282 97.9335C67.6493 106.756 61.3762 112.701 54.2972 112.701V114.356ZM37.4929 100.743C40.6421 108.723 46.9051 114.356 54.2972 114.356V112.701C47.8255 112.701 42.0343 107.742 39.0325 100.135L37.4929 100.743ZM33.229 96.8119L37.6936 101.04L38.8317 99.8381L34.3671 95.6101L33.229 96.8119ZM17.4614 87.7887C22.3271 88.156 27.7731 89.8596 33.1465 96.7212L34.4496 95.7007C28.7538 88.4273 22.8546 86.536 17.586 86.1382L17.4614 87.7887ZM3.07973 88.2238C5.40677 87.4169 7.82083 87.0608 17.4614 87.7887L17.586 86.1382C7.94003 85.41 5.21847 85.7303 2.53749 86.6599L3.07973 88.2238ZM0.903389 86.7077C0.897769 87.8999 2.07357 88.5726 3.07973 88.2238L2.53749 86.6599C2.53188 86.6619 2.52817 86.6625 2.52624 86.6627C2.52424 86.6629 2.52321 86.6627 2.52301 86.6627C2.52231 86.6626 2.5247 86.6627 2.52945 86.6659C2.53446 86.6692 2.54278 86.6766 2.54986 86.6895C2.55334 86.6959 2.55575 86.7022 2.55718 86.7079C2.55862 86.7136 2.55854 86.7165 2.55854 86.7155L0.903389 86.7077ZM10.1596 70.9612C6.34995 71.554 4.03403 74.2865 2.69157 77.3873C1.35218 80.4809 0.915819 84.0685 0.903389 86.7077L2.55854 86.7155C2.57034 84.2117 2.98931 80.8655 4.21049 78.0449C5.4286 75.2313 7.3785 73.069 10.4141 72.5967L10.1596 70.9612ZM5.83039 67.004C6.99108 67.3833 8.25374 67.8463 9.38399 68.3414C10.5293 68.8431 11.4818 69.3536 12.0624 69.8155C12.3591 70.0515 12.4873 70.2197 12.5284 70.3054C12.545 70.3399 12.5179 70.2645 12.5562 70.2073C12.5563 70.2071 12.5499 70.2167 12.5313 70.2344C12.5125 70.2523 12.4828 70.277 12.4383 70.3069C12.3476 70.3679 12.2097 70.441 12.0083 70.5192C11.6026 70.6765 11.0036 70.8299 10.1596 70.9612L10.4141 72.5967C11.3184 72.456 12.0467 72.2796 12.6069 72.0623C13.1464 71.853 13.6395 71.5646 13.9318 71.1278C14.2725 70.6186 14.2459 70.0587 14.0206 69.5892C13.8197 69.1707 13.4636 68.8151 13.0929 68.5202C12.3388 67.9203 11.2249 67.3408 10.0481 66.8253C8.8563 66.3032 7.54121 65.8218 6.34456 65.4307L5.83039 67.004ZM4.79034 64.9506C4.49478 65.8305 4.99482 66.7309 5.83039 67.004L6.34456 65.4307C6.34445 65.4307 6.35063 65.4334 6.35542 65.4427C6.35779 65.4472 6.35995 65.4536 6.36061 65.4615C6.36132 65.47 6.3599 65.4761 6.35937 65.4776L4.79034 64.9506ZM17.1408 52.6581C13.583 53.2117 10.8229 55.3189 8.80752 57.7323C6.79315 60.1445 5.47276 62.919 4.79034 64.9506L6.35936 65.4776C6.99082 63.5978 8.22182 61.0159 10.078 58.7932C11.9331 56.5718 14.3627 54.7655 17.3953 54.2936L17.1408 52.6581ZM18.9176 52.3817L17.1408 52.6581L17.3953 54.2936L19.1721 54.0171L18.9176 52.3817ZM13.2288 27.8078L18.2327 53.3585L19.857 53.0403L14.8531 27.4897L13.2288 27.8078ZM18.3189 23.4983C16.9414 22.8207 15.4908 23.1621 14.4958 24.0288C13.5056 24.8912 12.9322 26.2933 13.2288 27.8078L14.8531 27.4897C14.6753 26.5821 15.0182 25.7687 15.5828 25.2769C16.1427 24.7893 16.8856 24.6378 17.5883 24.9835L18.3189 23.4983ZM40.7834 34.549L18.3189 23.4983L17.5883 24.9835L40.0528 36.0342L40.7834 34.549ZM54.5041 31.5272C49.3538 31.5272 44.4669 32.6041 40.0845 34.5342L40.7516 36.049C44.9259 34.2105 49.5859 33.1824 54.5041 33.1824V31.5272ZM68.4345 34.3232C64.1787 32.5258 59.4635 31.5272 54.5041 31.5272V33.1824C59.2401 33.1824 63.7366 34.1357 67.7905 35.8479L68.4345 34.3232ZM90.3889 23.205L67.7472 34.3429L68.4778 35.8281L91.1195 24.6902L90.3889 23.205Z" fill="#FCF7F8"/>
<path d="M55.5795 101.272C54.9309 102.112 53.6703 102.133 52.9939 101.316L48.5756 95.9769C47.6909 94.9079 48.4351 93.2898 49.8224 93.2661L58.4793 93.1209C59.8666 93.098 60.6646 94.6903 59.8162 95.7884L55.5795 101.272Z" stroke="#FCF7F8" stroke-width="1.65517"/>
<path d="M39.1279 22.3139L48.1055 12.6212H39.1279V10.8469H50.5684V12.6212L41.5113 22.3139H50.5684V24.0883H39.1279V22.3139ZM54.2392 22.102L64.6999 7.51005H54.2392V5.55032H67.2157V7.53653L56.7021 22.1285H67.2157V24.0883H54.2392V22.102Z" fill="#FCF7F8"/>
</svg>
