<svg width="69" height="69" viewBox="0 0 69 69" fill="none" xmlns="http://www.w3.org/2000/svg">
<path d="M28.6254 51.5112C27.5865 52.5517 25.9022 52.5517 24.8634 51.5112C23.8245 50.4707 23.8245 48.7838 24.8634 47.7434L39.9115 32.6719C40.9503 31.6314 42.6346 31.6314 43.6735 32.6719C44.7124 33.7124 44.7124 35.3993 43.6735 36.4398L28.6254 51.5112Z" fill="#274553"/>
<path d="M24.8634 21.3683C23.8245 20.3278 23.8245 18.6409 24.8634 17.6005C25.9022 16.56 27.5865 16.56 28.6254 17.6005L43.6735 32.6719C44.7124 33.7124 44.7124 35.3993 43.6735 36.4398C42.6346 37.4802 40.9503 37.4802 39.9115 36.4398L24.8634 21.3683Z" fill="#274553"/>
</svg>
