<svg width="68" height="69" viewBox="0 0 68 69" fill="none" xmlns="http://www.w3.org/2000/svg">
<path d="M38.9112 17.6004C39.9501 16.5599 41.6344 16.5599 42.6733 17.6004C43.7121 18.6408 43.7121 20.3278 42.6733 21.3682L27.6252 36.4397C26.5863 37.4801 24.902 37.4801 23.8631 36.4397C22.8243 35.3992 22.8243 33.7123 23.8631 32.6718L38.9112 17.6004Z" fill="#274553"/>
<path d="M42.6733 47.7433C43.7121 48.7837 43.7121 50.4707 42.6733 51.5111C41.6344 52.5516 39.9501 52.5516 38.9112 51.5111L23.8631 36.4397C22.8243 35.3992 22.8243 33.7123 23.8631 32.6718C24.902 31.6313 26.5863 31.6314 27.6252 32.6718L42.6733 47.7433Z" fill="#274553"/>
</svg>
